<svg width="186" height="26" viewBox="0 0 186 26" fill="none" xmlns="http://www.w3.org/2000/svg">
<path d="M19.924 4.876H14.128L9.844 25H2.068L6.352 4.876H0.628L1.276 2.14H20.536L19.924 4.876ZM27.7608 11.824H28.0128C28.4688 11.368 28.9968 10.948 29.5968 10.564C30.1008 10.228 30.7008 9.928 31.3968 9.664C32.0928 9.4 32.8728 9.268 33.7368 9.268C34.9848 9.268 36.0168 9.592 36.8328 10.24C37.6488 10.864 38.0568 11.728 38.0568 12.832C38.0568 13.168 38.0208 13.552 37.9488 13.984C37.8768 14.392 37.7928 14.836 37.6968 15.316C37.6008 15.772 37.4928 16.24 37.3728 16.72C37.2768 17.176 37.1928 17.596 37.1208 17.98L35.6088 25H28.3008L30.2808 15.604C30.3288 15.292 30.3888 14.98 30.4608 14.668C30.5328 14.332 30.5688 14.032 30.5688 13.768C30.5688 13.408 30.4728 13.12 30.2808 12.904C30.1128 12.664 29.8488 12.544 29.4888 12.544C29.0568 12.544 28.6368 12.7 28.2288 13.012C27.8448 13.324 27.5448 13.6 27.3288 13.84L24.9528 25H17.6087L22.7207 0.807998H30.1008L27.7608 11.824ZM46.9105 17.764C46.8145 18.292 46.7425 18.796 46.6945 19.276C46.6705 19.756 46.6585 20.188 46.6585 20.572C46.6585 20.788 46.6705 21.028 46.6945 21.292C46.7185 21.556 46.7665 21.808 46.8385 22.048C46.9345 22.264 47.0545 22.456 47.1985 22.624C47.3665 22.768 47.5945 22.84 47.8825 22.84C48.0985 22.84 48.3385 22.768 48.6025 22.624C48.8905 22.48 49.1665 22.276 49.4305 22.012C49.7185 21.748 49.9825 21.424 50.2225 21.04C50.4865 20.656 50.6905 20.224 50.8345 19.744H56.7385L55.8025 23.596C55.3225 23.908 54.7705 24.172 54.1465 24.388C53.5225 24.604 52.8625 24.784 52.1665 24.928C51.4705 25.048 50.7625 25.132 50.0425 25.18C49.3225 25.252 48.6385 25.288 47.9905 25.288C46.7905 25.288 45.6745 25.18 44.6425 24.964C43.6105 24.748 42.7105 24.376 41.9425 23.848C41.1745 23.32 40.5625 22.624 40.1065 21.76C39.6745 20.872 39.4585 19.78 39.4585 18.484C39.4585 17.308 39.6385 16.156 39.9985 15.028C40.3825 13.9 41.0065 12.904 41.8705 12.04C42.7585 11.152 43.9345 10.444 45.3985 9.916C46.8865 9.388 48.7345 9.124 50.9425 9.124C53.3425 9.124 55.1425 9.496 56.3425 10.24C57.5665 10.984 58.1785 12.148 58.1785 13.732C58.1785 14.38 58.0825 15.088 57.8905 15.856C57.6985 16.6 57.4105 17.236 57.0265 17.764H46.9105ZM51.6985 13.48C51.6985 12.736 51.5785 12.232 51.3385 11.968C51.0985 11.704 50.8105 11.572 50.4745 11.572C50.0905 11.572 49.7305 11.704 49.3945 11.968C49.0825 12.208 48.7945 12.544 48.5305 12.976C48.2665 13.384 48.0265 13.864 47.8105 14.416C47.5945 14.944 47.4145 15.508 47.2705 16.108H51.3745C51.4225 15.82 51.4705 15.52 51.5185 15.208C51.5665 14.944 51.6025 14.656 51.6265 14.344C51.6745 14.032 51.6985 13.744 51.6985 13.48ZM84.8286 25H76.4046L72.4086 8.476L68.8806 25H65.6406L70.5006 2.14H79.1046L82.8846 18.88L86.4486 2.14H89.7606L84.8286 25ZM96.4457 17.764C96.3497 18.292 96.2777 18.796 96.2297 19.276C96.2057 19.756 96.1937 20.188 96.1937 20.572C96.1937 20.788 96.2057 21.028 96.2297 21.292C96.2537 21.556 96.3017 21.808 96.3737 22.048C96.4697 22.264 96.5897 22.456 96.7337 22.624C96.9017 22.768 97.1297 22.84 97.4177 22.84C97.6337 22.84 97.8737 22.768 98.1377 22.624C98.4257 22.48 98.7017 22.276 98.9657 22.012C99.2537 21.748 99.5177 21.424 99.7577 21.04C100.022 20.656 100.226 20.224 100.37 19.744H106.274L105.338 23.596C104.858 23.908 104.306 24.172 103.682 24.388C103.058 24.604 102.398 24.784 101.702 24.928C101.006 25.048 100.298 25.132 99.5777 25.18C98.8577 25.252 98.1737 25.288 97.5257 25.288C96.3257 25.288 95.2097 25.18 94.1777 24.964C93.1457 24.748 92.2457 24.376 91.4777 23.848C90.7097 23.32 90.0977 22.624 89.6417 21.76C89.2097 20.872 88.9937 19.78 88.9937 18.484C88.9937 17.308 89.1737 16.156 89.5337 15.028C89.9177 13.9 90.5417 12.904 91.4057 12.04C92.2937 11.152 93.4697 10.444 94.9337 9.916C96.4217 9.388 98.2697 9.124 100.478 9.124C102.878 9.124 104.678 9.496 105.878 10.24C107.102 10.984 107.714 12.148 107.714 13.732C107.714 14.38 107.618 15.088 107.426 15.856C107.234 16.6 106.946 17.236 106.562 17.764H96.4457ZM101.234 13.48C101.234 12.736 101.114 12.232 100.874 11.968C100.634 11.704 100.346 11.572 100.01 11.572C99.6257 11.572 99.2657 11.704 98.9297 11.968C98.6177 12.208 98.3297 12.544 98.0657 12.976C97.8017 13.384 97.5617 13.864 97.3457 14.416C97.1297 14.944 96.9497 15.508 96.8057 16.108H100.91C100.958 15.82 101.006 15.52 101.054 15.208C101.102 14.944 101.138 14.656 101.162 14.344C101.21 14.032 101.234 13.744 101.234 13.48ZM119.018 13.588L122.798 9.52H126.938L120.422 16.216L125.066 25H117.434L114.914 20.248L110.162 25H106.022L113.546 17.656L109.262 9.52H116.858L119.018 13.588ZM126.353 21.724L138.197 4.876H129.125L129.665 2.14H147.449L147.125 5.2L135.389 22.264H144.857L144.353 25H125.705L126.353 21.724ZM153.434 17.764C153.338 18.292 153.266 18.796 153.218 19.276C153.194 19.756 153.182 20.188 153.182 20.572C153.182 20.788 153.194 21.028 153.218 21.292C153.242 21.556 153.29 21.808 153.362 22.048C153.458 22.264 153.578 22.456 153.722 22.624C153.89 22.768 154.118 22.84 154.406 22.84C154.622 22.84 154.862 22.768 155.126 22.624C155.414 22.48 155.69 22.276 155.954 22.012C156.242 21.748 156.506 21.424 156.746 21.04C157.01 20.656 157.214 20.224 157.358 19.744H163.262L162.326 23.596C161.846 23.908 161.294 24.172 160.67 24.388C160.046 24.604 159.386 24.784 158.69 24.928C157.994 25.048 157.286 25.132 156.566 25.18C155.846 25.252 155.162 25.288 154.514 25.288C153.314 25.288 152.198 25.18 151.166 24.964C150.134 24.748 149.234 24.376 148.466 23.848C147.698 23.32 147.086 22.624 146.63 21.76C146.198 20.872 145.982 19.78 145.982 18.484C145.982 17.308 146.162 16.156 146.522 15.028C146.906 13.9 147.53 12.904 148.394 12.04C149.282 11.152 150.458 10.444 151.922 9.916C153.41 9.388 155.258 9.124 157.466 9.124C159.866 9.124 161.666 9.496 162.866 10.24C164.09 10.984 164.702 12.148 164.702 13.732C164.702 14.38 164.606 15.088 164.414 15.856C164.222 16.6 163.934 17.236 163.55 17.764H153.434ZM158.222 13.48C158.222 12.736 158.102 12.232 157.862 11.968C157.622 11.704 157.334 11.572 156.998 11.572C156.614 11.572 156.254 11.704 155.918 11.968C155.606 12.208 155.318 12.544 155.054 12.976C154.79 13.384 154.55 13.864 154.334 14.416C154.118 14.944 153.938 15.508 153.794 16.108H157.898C157.946 15.82 157.994 15.52 158.042 15.208C158.09 14.944 158.126 14.656 158.15 14.344C158.198 14.032 158.222 13.744 158.222 13.48ZM174.921 11.824C175.425 11.344 175.989 10.9 176.613 10.492C177.165 10.156 177.813 9.844 178.557 9.556C179.301 9.268 180.129 9.124 181.041 9.124C182.289 9.124 183.321 9.448 184.137 10.096C184.953 10.72 185.361 11.584 185.361 12.688C185.361 13 185.325 13.384 185.253 13.84C185.181 14.272 185.097 14.728 185.001 15.208C184.905 15.688 184.797 16.18 184.677 16.684C184.581 17.164 184.497 17.596 184.425 17.98L182.913 25H175.605L177.585 15.604C177.633 15.292 177.693 14.98 177.765 14.668C177.837 14.332 177.873 14.032 177.873 13.768C177.873 13.408 177.777 13.12 177.585 12.904C177.417 12.664 177.153 12.544 176.793 12.544C176.361 12.544 175.941 12.7 175.533 13.012C175.149 13.324 174.849 13.588 174.633 13.804L172.257 25H164.913L168.189 9.52H174.057L174.705 11.824H174.921Z" fill="#123456"/>
</svg>
