<svg width="129" height="94" viewBox="0 0 129 94" fill="none" xmlns="http://www.w3.org/2000/svg">
<g clip-path="url(#clip0_18_1544)">
<g clip-path="url(#clip1_18_1544)">
<g clip-path="url(#clip2_18_1544)">
<mask id="mask0_18_1544" style="mask-type:luminance" maskUnits="userSpaceOnUse" x="0" y="0" width="129" height="94">
<path d="M0.33429 0.669922H128.326V93.7999H0.33429V0.669922Z" fill="white"/>
</mask>
<g mask="url(#mask0_18_1544)">
<path fill-rule="evenodd" clip-rule="evenodd" d="M127.131 66.1098C126.931 66.558 126.682 66.6078 126.483 66.6078C126.428 66.6332 126.378 66.6668 126.334 66.7075C125.736 67.3051 123.794 68.6995 121.204 70.5422C118.664 72.4347 115.477 74.7754 112.339 77.1659C106.064 81.9469 99.6398 86.6781 98.0959 87.4749C97.3489 87.8734 96.9505 87.973 96.7512 87.973C96.5022 87.973 96.1536 88.0228 95.6556 87.973C92.0698 87.7738 63.5332 81.3493 60.1965 80.154C59.8314 79.9882 59.549 79.8552 59.3498 79.7556C55.8139 83.0425 53.4234 85.6323 52.3277 86.6283C51.4811 87.5247 50.9333 88.0228 50.5349 88.3714C50.5015 88.471 50.4851 88.5542 50.4851 88.6204C50.3855 89.1682 50.1364 89.2678 49.8874 89.3176C49.7878 89.3176 49.6882 89.3012 49.5886 89.2678C49.738 89.467 49.6882 89.6164 49.6384 89.6662C49.489 89.965 49.1404 89.965 47.6961 89.5168C47.1981 89.4172 46.3017 89.1184 44.957 88.8196C43.6622 88.5706 41.9191 88.3216 39.9768 88.0228C35.9926 87.4251 31.0622 86.7279 26.1318 85.9809C16.3208 84.5864 6.41017 83.441 4.31848 82.9927C3.72085 82.8931 3.32243 82.7437 3.07342 82.6441C2.92402 82.8931 2.72481 82.9429 2.5754 82.9429C2.27659 82.8931 2.02758 82.7935 1.82837 82.3453C1.57936 81.7477 1.52956 78.909 1.33035 76.0702C1.23074 74.6758 1.08134 73.2813 1.03153 72.1359C0.981733 71.5383 0.931931 71.0402 0.882128 70.6418V69.845C0.882128 69.7454 0.898563 69.6622 0.931931 69.596C0.998167 69.3968 1.1147 69.2309 1.28055 69.0979C1.28055 69.0979 1.33035 69.0481 1.38015 69.0481C1.23074 68.8987 1.23074 68.7991 1.23074 68.6995C1.23074 68.5999 1.28055 68.5003 1.42995 68.4007C1.36372 68.4007 1.31391 68.3843 1.28055 68.3509C1.03153 68.1517 0.732722 67.7533 0.633118 67.1557C0.633118 66.8569 0.633118 66.4584 0.782524 66.1098C0.93193 65.7612 1.13114 65.4126 1.42995 65.1138C1.82837 64.7154 2.37619 64.2671 3.07342 63.7193C3.77065 63.1879 4.60085 62.5405 5.56353 61.777C6.29413 61.2128 7.1074 60.5982 8.00383 59.9344C7.90423 59.8348 7.80463 59.785 7.70502 59.6355C7.50581 59.3367 7.35641 58.5399 7.207 57.4442C7.1074 56.3486 7.05759 54.9541 7.05759 53.6593C7.05759 52.3644 7.05759 51.0696 6.95799 50.0237C6.95799 49.2767 6.90819 48.6791 6.90819 48.2807C6.80858 47.9818 6.85839 47.7826 6.95799 47.683C6.95799 47.6332 6.95799 47.6332 7.00779 47.6332C6.85838 47.5336 6.75878 47.2846 6.80858 46.936C6.80858 46.5874 6.95799 46.2388 7.2568 45.7906L7.50581 45.5415C7.53918 45.4753 7.60542 45.4255 7.70502 45.3921L8.15324 44.9439C8.51829 44.6451 8.96651 44.28 9.4979 43.8483C10.5437 43.0016 11.8884 42.0056 13.4323 40.8601C16.5698 38.619 20.6038 35.9795 24.7374 33.589C28.8709 31.1985 33.1539 29.0072 36.6899 27.3638C37.5365 27.0151 38.3831 26.6167 39.1302 26.2681C39.5286 26.1351 39.8936 25.9857 40.2258 25.8199C40.4838 25.7239 40.7336 25.6073 40.9729 25.4713L41.2219 25.4215C41.2717 25.4215 41.3215 25.4713 41.4211 25.4713L41.8195 25.7203L42.3175 25.9195C42.4171 25.9857 42.5332 26.0525 42.6661 26.1187C42.8987 26.2183 43.1308 26.3015 43.3634 26.3677C43.7618 26.5669 44.1104 26.6665 44.3594 26.7163C44.5586 26.7826 44.7414 26.8493 44.9072 26.9155C45.7539 25.4215 46.4511 23.9274 46.9989 22.4832C48.244 19.2958 48.8914 16.3077 49.0906 13.9172C49.2898 11.5267 49.1404 9.7836 49.0906 8.88717C48.991 7.4429 48.8914 6.69587 48.8914 6.24765C48.8914 5.89904 48.9412 5.79943 49.0408 5.74963C49.0906 5.50062 49.4392 5.30141 50.7341 5.25161C51.7799 5.20181 54.6684 5.30141 58.4534 5.35121C62.2882 5.40102 67.0692 5.35121 71.8502 5.30141C76.6312 5.30141 81.4122 5.30141 85.2968 5.45082C89.1315 5.60023 92.0698 5.89904 93.0659 6.09825C94.6596 6.39706 94.8588 6.64607 94.8588 6.89508C94.809 7.19389 94.5101 7.3931 93.0161 7.49271C91.9702 7.54251 89.1315 7.49271 85.2968 7.4429C81.462 7.4429 76.681 7.49271 71.9 7.54251C67.119 7.54251 62.338 7.54251 58.4534 7.3433C54.5688 7.19389 51.6803 6.84528 50.6345 6.64607C50.2859 6.54647 50.0368 6.49666 49.7878 6.39706C49.987 6.84528 50.236 7.54251 50.4851 8.63816C50.5847 9.08637 50.6843 9.78361 50.7839 10.7298C50.8337 11.6263 50.8835 12.7219 50.8337 13.967C50.7341 16.5069 50.1364 19.6942 48.8914 23.1306C47.5965 26.5171 45.7041 30.2025 43.0147 33.5392C41.9898 34.8622 40.9098 36.1416 39.7776 37.374H40.674C41.2717 37.374 42.0685 37.374 43.0147 37.4238C43.0645 37.374 43.0645 37.3242 43.1143 37.2744C43.463 36.7764 44.5088 35.4317 45.8037 33.589C47.0985 31.7463 48.5428 29.3558 49.6882 26.8159C50.8337 24.276 51.7301 21.5867 52.2281 19.4452C52.776 17.2539 53.0748 15.5607 53.2242 14.963C53.3238 14.5646 53.4234 14.3156 53.523 14.1662C53.39 14.0666 53.3238 13.9506 53.3238 13.8176C53.3238 13.5686 53.3238 13.4192 53.4234 13.22C53.6226 12.9709 54.6186 12.8215 55.3657 12.5227C56.1127 12.2239 56.5609 11.7259 56.8099 11.5765C56.6107 11.4271 56.6107 11.3275 56.6107 11.2279C56.7103 10.9789 56.8597 10.8793 57.9056 10.9291C58.6028 10.9789 60.4953 11.2279 63.1348 11.2279C65.7743 11.2777 69.1111 11.0785 72.398 10.9789C79.0217 10.8295 85.5956 10.7298 87.0398 10.8793C88.1355 10.9789 88.3347 11.1283 88.3347 11.3275V11.4271H88.5339L88.5837 11.4769L88.6833 11.5765C88.7495 11.6427 88.8163 11.7259 88.8825 11.8255C89.0817 12.0745 89.3307 12.3235 89.6295 12.5227C90.277 12.9709 91.273 13.3196 91.4224 13.5188C91.522 13.718 91.522 13.8674 91.4722 14.0666C91.4493 14.1693 91.4159 14.2695 91.3726 14.3654C91.4722 14.5148 91.5718 14.7638 91.4722 15.5607C91.3726 16.9053 90.028 23.1306 87.5876 29.057C86.3924 32.0452 84.8983 34.8839 83.5039 37.0752C82.0596 39.2167 80.8146 40.7107 80.2667 41.2088C80.0177 41.408 79.8185 41.6072 79.6691 41.7068C80.9142 41.906 81.8106 42.155 82.3086 42.3044C84.0517 40.0135 85.5956 37.6728 86.9402 35.2823C89.0817 31.6467 90.6754 28.0112 91.771 24.6744C94.0619 17.9014 94.2611 12.4729 94.3607 10.6302C94.4604 7.69192 94.6097 7.3931 94.9086 7.3931C95.1576 7.3433 95.5062 7.69191 95.7552 10.5306C95.7886 10.8294 95.8214 11.1781 95.8548 11.5765L95.9046 11.5267C96.3528 11.2777 98.5939 11.1781 100.885 11.2279C101.98 11.2777 103.126 11.3275 104.022 11.3773C104.471 11.4271 104.969 11.4769 105.317 11.6263C105.716 11.7757 106.014 11.9749 106.164 12.1243C106.463 12.6223 106.263 12.8215 106.114 12.9709C105.865 13.1702 105.616 13.22 105.367 13.3196C105.218 13.3694 104.919 13.3196 104.022 13.4192C103.126 13.4192 101.98 13.469 100.835 13.4192C98.5939 13.3694 96.3528 13.22 95.9046 12.9709L95.8548 12.9211C95.805 13.8674 95.7552 15.0128 95.6058 16.2579C96.7014 16.0587 98.9425 16.1085 99.2912 16.4073C99.4406 16.5567 99.4904 16.7061 99.4904 16.9053V17.0547C99.59 17.121 99.7229 17.2206 99.8888 17.3535C99.9884 17.4198 100.104 17.4865 100.237 17.5527C100.287 17.6025 100.586 17.7519 100.785 17.8516C101.051 17.9178 101.349 18.0174 101.682 18.1504C101.582 18.3994 101.433 18.6484 101.283 18.9472L100.785 19.744C100.586 20.1091 100.353 20.5075 100.088 20.9393C99.6398 21.7361 99.0421 22.6824 98.3947 23.6784C97.1497 25.6705 95.6556 27.9116 94.1615 30.0531C91.1734 34.3361 88.1853 38.1708 87.3386 38.9677L87.1892 39.1171H87.1394C86.4422 40.2789 85.6952 41.408 84.8983 42.5036C89.9284 37.7226 94.7094 33.0412 97.9963 28.559C100.088 25.7701 101.632 23.1306 102.678 20.9393C103.773 18.7978 104.321 17.1045 104.67 16.2081C105.616 13.5188 105.765 13.2698 106.014 13.3196C106.313 13.3694 106.562 13.7678 106.014 16.5567C105.815 17.4531 105.367 19.1464 104.421 21.3377C105.616 21.1883 108.106 21.1385 110.646 21.1883C112.19 21.2381 113.684 21.2879 114.929 21.3875L115.825 21.4871H116.174C116.323 21.5369 116.473 21.5369 116.622 21.5867C117.17 21.6863 117.569 21.9353 117.768 22.1843C117.917 22.4333 117.967 22.6326 117.967 22.782C117.967 22.9149 117.951 23.0145 117.917 23.0808C117.967 23.1306 118.067 23.2302 118.116 23.4294C118.415 24.0768 118.515 27.1147 118.465 30.2025C118.465 31.6965 118.415 33.2902 118.216 34.5851C118.017 35.8301 117.668 36.7764 117.469 37.0752C117.12 37.5234 116.921 37.5732 116.672 37.4736C116.473 37.8222 115.875 38.3202 114.431 39.3163C112.887 40.3621 108.355 43.2506 102.528 47.2846C102.064 47.5834 101.598 47.8987 101.134 48.2309C103.475 48.5795 108.256 49.5257 113.086 50.2727C119.013 51.219 124.989 51.6672 126.234 51.966C127.23 52.1652 127.38 52.4142 127.38 52.6134V52.713C127.446 52.7793 127.513 52.8291 127.579 52.8625C127.678 52.9621 127.728 53.0119 127.778 53.1613C127.778 53.2111 127.828 53.3605 127.828 53.3605L127.878 53.4601C128.376 54.7051 127.678 64.9146 127.131 66.1098ZM91.522 30.9993C91.9702 30.4017 92.3687 29.7543 92.8169 29.1566C94.3109 27.0151 95.805 24.774 97.0999 22.8318C97.7473 21.8357 98.3449 20.9393 98.8927 20.1424C99.1582 19.744 99.4072 19.379 99.6398 19.0468L99.6896 18.9472L99.7394 18.8974L99.7892 18.8476C99.7892 18.7978 99.839 18.748 99.839 18.748L99.7394 18.6484L99.6896 18.5986L99.59 18.5488C99.3908 18.3496 99.2912 18.25 99.1916 18.1006C99.0766 17.9619 98.9765 17.8117 98.8927 17.6523C97.9963 17.8516 96.2034 17.8516 95.4066 17.6523C95.1078 19.8934 94.6097 22.4333 93.7133 25.2223C93.1157 27.0649 92.4185 29.0072 91.522 30.9993ZM85.1971 45.2427C85.1971 45.2761 85.2136 45.3259 85.2469 45.3921C91.0738 40.8103 96.801 36.3779 101.632 32.842C107.359 28.6586 111.791 25.7203 113.435 24.774C115.925 23.28 116.274 23.3298 116.423 23.529C116.572 23.778 116.423 24.1764 114.282 25.9195C112.788 27.0649 108.455 30.1527 102.877 34.3859C97.9465 38.1708 92.02 42.8024 85.994 47.5834C86.243 48.5795 86.3924 49.6751 86.4422 50.7708C86.5916 52.6632 86.3924 54.5557 86.1434 55.9502C87.9696 54.6887 89.7789 53.4601 91.5718 52.2648C95.058 49.8743 98.3449 47.6332 101.333 45.6411C107.309 41.7068 111.991 38.9677 113.684 38.121C114.979 37.4736 115.726 37.125 116.174 37.0254C116.131 36.9294 116.097 36.8293 116.074 36.7266C116.025 36.4277 116.124 35.5313 116.224 34.3859C116.274 33.2404 116.274 31.7463 116.274 30.2025C116.323 27.1147 116.473 24.0768 116.722 23.4294C116.722 23.396 116.738 23.3632 116.772 23.3298H115.776C115.51 23.3632 115.211 23.3796 114.879 23.3796C113.684 23.4294 112.14 23.4294 110.596 23.3796C107.558 23.3298 104.52 23.1306 103.823 22.8816L103.773 22.8318C102.777 24.8737 101.383 27.2642 99.6398 29.6547C96.0042 34.7843 90.6754 40.0135 85.1971 45.2427ZM126.483 53.3107C126.384 53.3107 126.3 53.3271 126.234 53.3605C124.939 53.6095 118.814 53.4103 112.788 52.4142C106.761 51.5178 100.885 50.0237 99.6896 49.4759L99.4904 49.3763C98.1719 50.2792 96.8604 51.1923 95.556 52.1154H95.805C96.2532 52.1652 97.4485 52.464 99.0421 52.8126C100.686 53.1613 102.728 53.5099 104.769 53.8087C108.903 54.4561 113.037 54.6553 113.933 54.8047C114.63 54.9541 114.73 55.1035 114.73 55.3028C114.731 55.3489 114.723 55.3947 114.706 55.4375C114.689 55.4804 114.663 55.5192 114.63 55.5518C114.68 55.7012 114.78 55.9004 114.929 56.1494C114.962 56.2156 115.012 56.2988 115.078 56.3984L115.228 56.5478C115.278 56.5976 115.377 56.6474 115.527 56.6972C115.859 56.8631 116.224 57.0294 116.622 57.1952C116.523 57.2948 116.523 57.3446 116.423 57.3944C116.323 57.4941 116.224 57.5772 116.124 57.6435L115.327 58.2411C114.962 58.5399 114.58 58.8551 114.182 59.1873C113.435 59.6853 112.638 60.3328 111.791 60.9802C109.999 62.3249 108.007 63.8189 106.014 65.2632C102.08 68.1019 98.3449 70.6916 97.3489 71.1896C96.552 71.6379 96.3528 71.5881 96.2532 71.4387V71.3888C96.1038 71.339 95.9046 71.2394 95.6556 71.09C95.4564 70.9406 95.1078 70.7414 94.56 70.592C94.0121 70.4426 93.2651 70.3928 92.5679 70.6916C92.3687 70.7912 92.2028 70.8908 92.0698 70.9904C91.9702 71.0402 91.9702 71.0402 91.7212 71.2892C91.522 71.4387 91.3726 71.7375 91.0738 71.5881C90.427 71.452 89.7796 71.3192 89.1315 71.1896C87.9861 70.9406 86.741 70.6916 85.5458 70.3928C80.715 69.2474 75.9837 67.8529 74.9877 67.3549C74.7885 67.2553 74.6391 67.1557 74.5395 67.1059L71.8502 69.1976C76.681 69.8948 93.5141 74.0284 95.6058 74.9746C95.8712 75.1076 96.0704 75.2236 96.2034 75.3232C96.303 75.1738 96.4026 75.0244 96.552 74.8252C97.7473 73.5303 104.072 68.3509 110.746 63.6197C117.419 58.8387 124.242 54.4063 125.786 53.6095C126.085 53.4601 126.284 53.3605 126.483 53.3107ZM44.459 37.4736C45.6045 37.5234 46.8993 37.623 48.3436 37.7226C49.5388 36.7764 50.5349 36.1289 51.1823 35.7803C51.5309 35.5811 51.8795 35.3321 52.3277 35.0831C53.1246 34.6847 54.8178 33.9874 57.1585 33.838C59.4992 33.6388 62.4874 33.9874 65.6747 35.0333C66.4715 35.2823 67.3182 35.6807 68.115 36.1787C68.9118 36.7266 69.6589 37.4736 70.1569 38.4198C70.4557 38.9677 70.6051 39.5653 70.7047 40.1629C73.9917 40.6609 76.8802 41.159 79.0217 41.5574H79.0715C79.0217 41.3582 79.1213 41.1091 79.4699 40.5115C79.8185 39.9637 80.9142 38.4198 82.209 36.2783C83.5039 34.1369 84.8983 31.3977 86.0438 28.4594C88.4343 22.6824 89.9284 16.5567 90.4762 15.3116C90.5758 14.963 90.6754 14.7638 90.775 14.6144C90.3268 14.6144 89.5299 14.4152 88.7829 13.9172C88.2351 13.5686 87.7869 13.0705 87.5876 12.5725C87.488 12.3733 87.4382 12.1243 87.4382 11.9251V11.8753C87.3386 11.8753 87.239 11.8917 87.1394 11.9251C85.6952 12.1741 79.0715 12.4729 72.4478 12.6223C69.1111 12.7219 65.8241 12.8713 63.1348 12.7219C60.5949 12.6223 58.6526 12.2737 57.8558 12.0247C57.8558 12.2239 57.7064 12.5725 57.4574 12.9211C57.1585 13.3694 56.6605 13.7678 56.0629 14.0168C55.3159 14.3156 54.6186 14.3654 54.1704 14.3654C54.2038 14.5312 54.2367 14.7638 54.27 15.0626C54.3198 15.6603 54.1704 17.4531 53.7222 19.744C53.274 22.0349 52.3775 24.8239 51.1823 27.4634C49.987 30.1029 48.4432 32.593 47.0487 34.4357C46.0029 35.8301 45.0566 36.876 44.459 37.4736ZM68.7624 39.1669C68.115 37.8222 66.6708 36.9756 65.2265 36.4277C62.2384 35.4317 59.4494 35.0333 57.308 35.1329C55.1665 35.2325 53.6226 35.7305 52.8756 36.0293H52.8258C52.5768 36.1787 52.2779 36.3779 51.9293 36.627C51.5309 36.876 50.9333 37.2744 50.1862 37.8222C53.5728 38.0712 57.3578 38.4696 61.1925 38.9179C63.8818 39.2167 66.5213 39.5653 69.0613 39.9139C68.9966 39.6523 68.8961 39.4009 68.7624 39.1669ZM39.678 38.8182C39.2133 38.7186 38.8647 38.6355 38.6322 38.5692C37.0883 40.1131 35.4946 41.6072 33.8511 43.0016C32.6559 43.9977 31.5104 44.9439 30.3152 45.8404H30.4646C31.9089 45.7407 36.6899 45.9898 42.5665 46.5874C43.0645 46.6536 43.5626 46.7034 44.0606 46.7368C46.6005 46.9858 49.24 47.3344 51.8795 47.683C56.0629 48.2807 60.1965 48.9779 63.7324 49.6253C64.463 49.7583 65.1603 49.8908 65.8241 50.0237C69.4099 50.721 72.0992 51.3186 73.0454 51.6672C73.3109 51.7334 73.5434 51.8166 73.7427 51.9162C74.0081 52.0158 74.2073 52.099 74.3403 52.1652C74.6889 52.3644 74.7387 52.5138 74.6889 52.6632C74.6889 52.8127 74.5893 52.9123 74.2905 52.9621C74.4235 53.0617 74.5559 53.1946 74.6889 53.3605C74.7223 53.4267 74.7551 53.5099 74.7885 53.6095L74.8881 53.8087C74.9215 53.9745 74.9877 54.1907 75.0873 54.4561C75.1869 54.8212 75.303 55.2863 75.4359 55.8506C75.6351 56.7968 75.8343 57.8925 76.0336 58.9881C76.2328 60.283 76.3324 61.6276 76.2826 62.7233V63.0719C77.7766 61.9762 79.2707 60.8308 80.8146 59.7351C81.9102 58.9383 83.0223 58.1579 84.1513 57.3944C84.1513 56.0996 84.4003 53.4601 84.2509 50.9202C84.2509 50.2727 84.1513 49.6751 84.1015 49.0775C83.9521 48.2309 83.8027 47.434 83.6035 46.687V46.5376C83.4043 45.8902 83.2051 45.3423 83.1055 44.8941C83.0153 44.721 82.9484 44.5368 82.9062 44.3463C82.8729 44.2467 82.8564 44.1635 82.8564 44.0973C82.8273 43.9663 82.8106 43.8329 82.8066 43.6989H82.209C81.9764 43.6989 81.6776 43.6824 81.3126 43.6491C79.3205 43.4499 75.3861 42.902 70.6549 42.3044C70.1071 42.2048 69.6091 42.155 69.0613 42.0554C66.4715 41.7566 63.7324 41.408 60.9435 41.0593C56.3617 40.5613 51.7301 40.0633 47.9451 39.7147C47.3471 39.6519 46.7495 39.5855 46.1523 39.5155C42.9649 39.2167 40.5744 38.9677 39.678 38.8182ZM1.87817 67.8529C1.92797 68.0521 2.02758 68.1517 2.07738 68.2513C2.42519 68.2102 2.7739 68.177 3.12322 68.1517C5.36432 68.1517 15.6236 69.1976 25.833 70.3928C28.4227 70.7414 30.9626 70.9406 33.4029 71.1398C35.8432 71.3888 38.1341 71.6379 40.2258 71.8371C42.2677 72.0363 44.0606 72.2853 45.5048 72.3849C46.6005 72.4845 47.3973 72.4845 47.995 72.4845C48.3436 72.1359 48.7918 71.7873 49.3396 71.339C50.8337 70.094 55.3159 67.0063 61.0431 62.6735C64.6289 59.9842 68.6628 56.6972 72.5972 53.0119C71.9 52.9621 70.8043 52.8126 69.3103 52.5636H69.2605C69.2107 52.6632 69.1111 52.8126 68.9617 53.0119C68.2644 53.9581 64.2803 57.4442 60.0969 60.6814C55.9135 63.9185 51.5807 66.9565 50.5349 67.4545C50.236 67.6039 50.0866 67.6537 49.9372 67.7035C49.8671 67.7721 49.7818 67.8232 49.6882 67.8529C49.2898 68.0023 47.5965 68.0023 45.9033 68.3011C45.0566 68.5003 44.21 68.6995 43.6622 68.8987C43.0645 69.1478 42.8155 69.3968 42.6661 69.4466C42.6163 69.4964 42.5665 69.4964 42.5167 69.4964C42.4669 69.6956 42.2179 69.7952 41.2717 69.845C38.4827 69.8948 15.7232 66.9067 13.0339 66.2094C12.1872 66.0102 11.988 65.811 11.9382 65.6616C11.9048 65.695 11.872 65.7114 11.8386 65.7114C11.4402 65.9106 11.0916 65.9604 10.9422 65.9106C10.743 65.811 10.6931 65.6616 10.6433 65.4624C10.5935 65.2632 10.5935 65.064 10.6433 64.8648C10.743 64.6656 11.2908 64.3667 11.6892 63.8189C12.0876 63.2711 12.237 62.6237 12.4362 62.4245C12.486 62.3747 12.5358 62.3747 12.5856 62.3249C12.5856 62.1257 12.6852 61.9264 13.1833 61.4782C14.0797 60.781 18.5121 58.1913 22.6457 55.1035C26.829 52.0656 30.614 48.5795 31.5104 47.932C32.2077 47.434 32.4069 47.4838 32.5065 47.6332C32.7057 47.7826 32.7555 47.9818 32.2575 48.6791C31.61 49.6253 27.8749 53.3107 23.6417 56.3984C19.4583 59.5857 14.7769 62.026 13.7311 62.4245C13.6315 62.4245 13.5817 62.4743 13.5319 62.4743C13.6315 62.6237 13.6813 62.9225 13.6315 63.2711C13.5817 63.7193 13.3825 64.2671 13.0339 64.7154C12.9342 64.9146 12.7848 65.064 12.6354 65.2134C12.7684 65.18 12.9342 65.1636 13.1335 65.1636C15.9224 65.1138 38.7318 68.1019 41.4211 68.7991C41.554 68.8325 41.6701 68.8654 41.7697 68.8987C41.7697 68.5999 42.2179 67.9525 42.9649 67.5541C43.712 67.1557 44.6084 66.9067 45.5546 66.7075C47.4471 66.3588 49.3396 66.558 49.738 66.8071C49.7878 66.7074 49.8376 66.6576 49.9372 66.6078C50.7341 65.7612 54.9174 62.6237 59.051 59.3865C62.9854 56.3486 66.8202 53.2111 68.0652 52.3644C66.7704 52.1652 65.2763 51.9162 63.6826 51.6672C62.8858 52.1986 62.0556 52.6632 61.1925 53.0617C57.3578 54.8545 52.9254 55.3028 49.0408 54.2569C47.0985 53.7589 45.1562 52.8127 43.9112 51.1692C43.3136 50.4221 42.9649 49.5755 42.7657 48.7289C36.7397 48.0316 31.8093 47.4838 30.4148 47.2348C29.6678 47.0854 29.2693 46.9858 29.0203 46.8862C27.1777 48.2807 25.2852 49.6751 23.4923 50.97C20.1058 53.4601 16.9184 55.8008 14.0299 57.8427C11.1912 59.9344 8.65126 61.7272 6.65918 63.1715C5.62977 63.8687 4.75026 64.4664 4.01966 64.9644C3.32243 65.5122 2.72481 65.8608 2.42599 66.1098C1.97778 66.5082 1.77857 66.8569 1.72876 67.1557C1.72876 67.4545 1.77857 67.7035 1.87817 67.8529ZM8.20304 47.5336C8.30265 47.5834 8.35245 47.5834 8.45205 47.6332C8.70106 47.683 9.19909 47.7826 9.69711 47.9818C10.6931 48.2807 11.9382 48.7289 13.1833 49.1771C15.6734 50.1233 18.0639 51.219 18.5121 51.6174C18.6117 51.717 18.6779 51.8002 18.7113 51.8664L20.9524 50.2229C20.6038 50.2727 19.4583 49.7249 18.3129 49.1273C17.1674 48.5297 16.0718 47.932 15.8726 47.6332C15.7232 47.434 15.773 47.2846 15.8726 47.0854C15.9224 46.936 16.022 46.7866 16.2212 46.687C16.2212 46.5376 16.3706 46.2886 16.6694 45.7407C16.7192 45.5913 16.8188 45.3921 16.9184 45.0933C16.9518 44.9275 16.9682 44.7611 16.9682 44.5953C17.018 44.4957 17.018 44.4459 16.9682 44.2467C16.9682 44.0475 16.9518 43.8149 16.9184 43.5495C17.7153 43.0016 18.7611 42.404 19.8567 41.657C20.8528 41.0593 21.9484 40.3621 23.1437 39.6649C25.4844 38.2206 28.1239 36.6768 30.614 35.1827C33.1539 33.6886 35.5444 32.2942 37.4867 31.1985C38.4329 30.6507 39.2796 30.1527 40.0764 29.8539C40.8732 29.5551 41.5705 29.5551 41.9689 29.6049C42.4669 29.7045 42.7657 29.8539 42.9649 30.0531C43.4132 29.4056 43.8116 28.7582 44.21 28.1108H44.1104C43.8116 28.1108 43.4132 28.061 42.9151 27.9116C42.6826 27.8782 42.4171 27.812 42.1183 27.7124C41.9689 27.6626 41.8195 27.6128 41.6701 27.5132C41.5322 27.4781 41.3986 27.428 41.2717 27.3638H41.1721V27.4136H41.1223L41.0227 27.4634C40.6905 27.6292 40.3419 27.812 39.9768 28.0112C39.2133 28.3762 38.4165 28.7582 37.5863 29.1566C34.15 30.8997 29.9666 33.091 25.8828 35.4815C21.799 37.8222 17.8149 40.3621 14.6275 42.5036C13.0339 43.5495 11.6394 44.4957 10.5437 45.2427C10.0124 45.6078 9.5477 45.9235 9.14928 46.189C8.95008 46.3219 8.7673 46.438 8.60146 46.5376C8.50731 46.6118 8.40739 46.6784 8.30265 46.7368C8.10344 46.8862 7.95403 47.0854 7.85443 47.185C7.82106 47.2184 7.80463 47.2512 7.80463 47.2846C7.9376 47.318 8.07007 47.4007 8.20304 47.5336ZM42.5167 30.6507H41.9191C41.6701 30.7005 41.2219 30.7503 40.5744 31.0491C39.9768 31.2981 39.18 31.846 38.2337 32.4436C36.3413 33.589 34.0006 35.0831 31.4606 36.5772C28.9705 38.0712 26.331 39.6151 23.9405 41.0095C22.7453 41.7068 21.6496 42.3542 20.6536 42.9518C20.1222 43.2506 19.6411 43.5161 19.2093 43.7487C18.9767 43.8816 18.7611 43.9977 18.5619 44.0973L18.4125 44.1969H18.3627L18.3129 44.2467V44.3463C18.2631 44.4459 18.2631 44.5953 18.2631 44.7447C18.2133 44.9937 18.1137 45.2427 18.0639 45.4419C17.9145 45.8404 17.7153 46.1392 17.5658 46.2886C17.3666 46.5376 17.1674 46.687 17.018 46.7866C17.5658 46.936 18.3129 47.2846 19.0599 47.6332C20.2054 48.2309 21.301 48.9779 21.4504 49.2767C21.5998 49.5257 21.5002 49.6751 21.4006 49.8245C21.4006 49.8579 21.3842 49.8908 21.3508 49.9241L21.4006 49.8743C21.4006 49.9077 21.4006 49.9077 21.4006 49.8743L22.1476 49.2767C25.5342 46.7866 29.0203 44.1969 32.3571 41.3582C35.6938 38.5692 38.7816 35.4815 41.3215 32.2942C41.7492 31.7683 42.1482 31.2197 42.5167 30.6507ZM9.24889 53.6095C9.24889 54.9541 9.19909 56.249 9.19909 57.2948C9.19909 58.0419 9.19909 58.6893 9.14928 59.0379C10.2947 58.1913 11.49 57.2948 12.7848 56.2988L17.3666 52.8625C16.3208 52.6632 14.3785 52.0158 12.4362 51.2688C11.1912 50.7708 9.99592 50.2727 8.99988 49.8245H8.95007C9.14928 50.9202 9.24889 52.2648 9.24889 53.6095ZM51.6305 49.8743C49.1902 49.5257 46.7499 49.2269 44.4092 48.9281C44.575 49.3927 44.8076 49.8081 45.1064 50.1731C46.0527 51.4182 47.6463 52.2648 49.3894 52.713C52.8756 53.6095 56.9593 53.2609 60.4455 51.6174C60.6781 51.4844 60.9101 51.3684 61.1427 51.2688C58.1546 50.8206 54.9174 50.3225 51.6305 49.8743ZM49.1404 88.8196C49.107 88.8196 49.0906 88.8032 49.0906 88.7698C48.3934 87.4251 47.2977 75.622 47.6463 74.1778C47.6463 74.128 47.6463 74.0782 47.6961 74.0284C47.0985 74.0946 46.3515 74.128 45.455 74.128C44.0108 74.128 42.1681 73.9786 40.1262 73.8291C38.0345 73.6797 35.6938 73.4805 33.2535 73.2813C30.8132 73.0821 28.2235 72.8829 25.6338 72.5841C15.4244 71.3888 5.16511 70.0442 2.97382 69.5462C2.4758 69.4466 2.12718 69.347 1.87817 69.2474V69.347C1.8448 69.3803 1.82837 69.4301 1.82837 69.4964C1.82837 69.5297 1.86174 69.5626 1.92797 69.596C1.96134 69.6293 2.02758 69.6622 2.12718 69.6956C2.19342 69.6956 2.26015 69.712 2.32639 69.7454H2.42599V69.7952L2.4758 69.845C2.50916 69.978 2.55897 70.1438 2.6252 70.343C2.72481 70.7414 2.87421 71.2394 2.97382 71.8371C3.22283 72.9825 3.42204 74.4268 3.52164 75.9208C3.67105 78.2117 3.57144 80.5026 3.42204 81.6481C3.67105 81.6481 3.96986 81.5983 4.41808 81.5983C6.55957 81.4987 16.52 82.3951 26.4306 83.7896C31.361 84.4868 36.2915 85.3334 40.2258 86.0307C42.2179 86.4291 43.961 86.7279 45.3554 87.1263C46.7499 87.5247 47.7459 87.973 48.244 88.222C48.6424 88.471 48.8914 88.6702 49.1404 88.8196ZM61.2921 75.3232C64.9775 71.8869 69.5095 68.2015 74.3901 64.5162C74.3403 64.1675 74.3403 63.5201 74.2905 62.7731C74.2407 61.8268 74.0415 60.5818 73.8423 59.3367C73.7427 58.6395 73.6431 57.9423 73.5434 57.2948C70.1569 59.9344 66.87 62.3747 63.9316 64.4664C58.2044 68.5999 53.7222 71.4884 52.0289 72.3849C49.8376 73.6299 49.1902 73.8291 48.991 73.7295H48.9412C48.9078 73.7295 48.875 73.746 48.8416 73.7794C48.9078 73.8456 48.9746 73.9288 49.0408 74.0284C49.5886 75.124 50.4353 82.9927 50.5349 86.7279C50.7341 86.4291 50.9831 86.1303 51.2321 85.7319C52.4273 84.2378 56.0131 80.154 61.2921 75.3232ZM95.6058 86.4789C95.4564 85.5327 95.4066 83.6402 95.3568 81.6979C95.307 80.7018 95.307 79.7058 95.307 78.8592C95.307 77.6141 95.3568 76.6679 95.4564 76.3691H95.307C92.7671 76.3193 72.7964 71.4885 70.5055 70.4426C70.4509 70.4173 70.4005 70.3837 70.3561 70.343C67.5672 72.5841 64.9775 74.7256 62.6866 76.7675C61.9231 77.4313 61.1925 78.0957 60.4953 78.7596C63.9316 78.9588 91.1236 85.0346 95.6058 86.4789ZM126.085 55.2032C124.043 56.8964 118.017 61.0798 112.041 65.3628C105.417 70.094 98.9923 75.0244 97.4485 75.9208C97.2493 76.0703 97.0501 76.1699 96.9007 76.2695C97.1995 76.8173 97.4983 79.2078 97.5481 81.5983C97.5979 83.441 97.4983 85.2338 97.2991 86.2797C98.6437 84.9848 104.769 80.154 110.995 75.4228C114.132 73.0323 117.369 70.6916 120.059 68.9485C122.698 67.1557 124.79 65.9106 125.537 65.562H125.636C125.387 63.6695 125.686 58.1415 126.085 55.2032ZM82.1592 61.4782C79.9181 63.0719 77.677 64.7154 75.4857 66.3588C76.93 66.558 81.4122 67.7533 85.8944 68.7991C87.0896 69.0481 88.2849 69.347 89.4303 69.596C89.7291 69.6622 90.0115 69.7289 90.277 69.7952C90.4762 69.845 90.775 69.8948 90.8248 69.9446C90.8248 69.978 90.8412 69.978 90.8746 69.9446C90.9742 69.845 91.5718 69.4466 92.02 69.2972C93.1655 68.8987 94.2113 69.0979 94.9584 69.347C95.7054 69.6458 96.1536 70.0442 96.3528 70.2932C96.4524 70.3928 96.5187 70.4924 96.552 70.592C96.6018 70.4924 96.6516 70.4426 96.7512 70.343C97.4485 69.596 101.084 66.8071 105.018 63.9185C107.01 62.4743 109.052 60.9802 110.845 59.7351C111.742 59.0877 112.588 58.4901 113.286 57.9921C113.485 57.8591 113.668 57.7431 113.833 57.6435C113.933 57.5772 114.016 57.5274 114.082 57.4941L114.132 57.4442C114.198 57.4109 114.248 57.3944 114.282 57.3944L114.331 57.3446V57.2948C114.232 57.245 114.232 57.245 114.132 57.0458C113.999 56.8133 113.933 56.631 113.933 56.498C113.883 56.249 113.883 56.0498 113.933 55.9004C112.987 56.0996 108.754 56.0996 104.57 55.4522C102.478 55.1534 100.387 54.7051 98.7433 54.2569C97.0501 53.8585 95.8548 53.3605 95.4564 53.1115C95.0082 52.8625 94.9086 52.713 94.8588 52.5636C94.2113 53.0119 93.5141 53.5099 92.8169 53.9581C89.3805 56.3984 85.745 58.8885 82.1592 61.4782Z" fill="#123456"/>
<path d="M84.1513 57.3945C83.0223 58.158 81.9102 58.9384 80.8146 59.7352C79.2707 60.8309 77.7766 61.9763 76.2826 63.072V62.7234C76.3324 61.6277 76.2328 60.2831 76.0336 58.9882C75.8343 57.8926 75.6351 56.7969 75.4359 55.8507C75.3275 55.3839 75.2113 54.9191 75.0873 54.4562C75.0045 54.2458 74.9379 54.0294 74.8881 53.8088L74.7885 53.6096C74.7611 53.5244 74.7279 53.4412 74.6889 53.3606C74.5732 53.2117 74.4394 53.0778 74.2905 52.9622C74.5893 52.9124 74.6889 52.8127 74.6889 52.6633C74.7387 52.5139 74.6889 52.3645 74.3403 52.1653C74.1452 52.0728 73.9457 51.9897 73.7426 51.9163C73.5434 51.8167 73.3109 51.7335 73.0454 51.6673C72.0992 51.3187 69.4099 50.7211 65.8241 50.0238C65.1281 49.8849 64.4308 49.7521 63.7324 49.6254C60.1965 48.978 56.0629 48.2808 51.8795 47.6831C49.24 47.3345 46.6005 46.9859 44.0606 46.7369C43.5626 46.7035 43.0645 46.6537 42.5665 46.5875C36.6899 45.9899 31.9089 45.7408 30.4646 45.8404H30.3152C31.5104 44.944 32.6559 43.9978 33.8511 43.0017C35.4946 41.6073 37.0883 40.1132 38.6321 38.5693C38.8647 38.6356 39.2133 38.7187 39.678 38.8183C40.5744 38.9678 42.9649 39.2168 46.1523 39.5156C46.7165 39.5818 47.3141 39.6485 47.9451 39.7148C51.7301 40.0634 56.3617 40.5614 60.9435 41.0594C63.7324 41.4081 66.4715 41.7567 69.0613 42.0555C69.6091 42.1551 70.1071 42.2049 70.6549 42.3045C75.3861 42.9021 79.3205 43.4499 81.3126 43.6492C81.6776 43.6825 81.9764 43.699 82.209 43.699H82.8066C82.8066 43.7986 82.8231 43.9315 82.8564 44.0974C82.8564 44.1636 82.8729 44.2468 82.9062 44.3464C82.9396 44.5122 83.0058 44.695 83.1055 44.8942C83.2051 45.3424 83.4043 45.8903 83.6035 46.5377V46.6871C83.8027 47.4341 83.9521 48.231 84.1015 49.0776C84.1513 49.6752 84.2509 50.2728 84.2509 50.9203C84.4003 53.4602 84.1513 56.0997 84.1513 57.3945Z" fill="white"/>
<path d="M42.6661 12.6224C42.7657 13.0208 43.0147 13.1702 43.3135 13.2698C43.5127 13.3196 43.7617 13.3196 44.0606 12.9212C44.4092 12.4232 45.1562 9.68407 44.9072 6.89515C44.7578 4.10623 43.7119 1.46672 43.2139 1.0683C42.8653 0.719685 42.6163 0.769487 42.3175 0.918893C42.1183 0.968695 41.9191 1.1181 41.9191 1.56632C41.9191 2.16395 42.6163 4.60425 42.7159 7.09436C42.9151 9.53466 42.5167 12.0248 42.6661 12.6224ZM48.3435 92.1066C47.5965 91.8576 44.0606 91.5588 40.5744 91.1604C37.0883 90.762 33.6519 90.1643 32.8551 90.3137C32.2574 90.4133 32.1578 90.6125 32.0582 90.9114C32.0084 91.1604 32.0582 91.4094 32.5563 91.7082C33.3033 92.1066 36.7894 92.9035 40.3752 93.3517C43.9609 93.7501 47.5467 93.7999 48.3435 93.5509C48.8914 93.3517 48.991 93.1027 48.991 92.8038C48.991 92.5548 48.9412 92.3058 48.3435 92.1066ZM23.7413 88.8197C22.2472 88.7699 20.7531 89.0189 20.4543 89.3177C20.2551 89.5667 20.2551 89.8157 20.2551 90.1145C20.3049 90.3635 20.3547 90.5628 20.6037 90.7122C20.9026 90.9612 22.3468 90.9612 23.7413 91.011C25.1357 91.0608 26.5302 91.0608 26.8788 90.8118C27.1278 90.6125 27.1776 90.4133 27.2274 90.1145C27.2274 89.8655 27.2274 89.6165 27.0282 89.4173C26.7294 89.1185 25.2353 88.8695 23.7413 88.8197Z" fill="#123456"/>
</g>
</g>
</g>
</g>
<defs>
<clipPath id="clip0_18_1544">
<rect width="128" height="93.13" fill="white" transform="translate(0.330017 0.669922)"/>
</clipPath>
<clipPath id="clip1_18_1544">
<rect width="128" height="93.13" fill="white" transform="translate(0.330017 0.669922)"/>
</clipPath>
<clipPath id="clip2_18_1544">
<rect width="127.992" height="93.13" fill="white" transform="translate(0.33429 0.669922)"/>
</clipPath>
</defs>
</svg>
