<svg width="30" height="38" viewBox="0 0 30 38" fill="none" xmlns="http://www.w3.org/2000/svg">
<path d="M20.3736 0.207767C20.7669 1.04366 20.6194 1.83038 20.5457 2.64168C20.349 5.19852 20.0785 7.73077 19.9065 10.263C19.8081 11.3448 19.8327 12.4019 19.8327 13.4837C19.8573 13.9508 19.8327 14.3687 19.5868 14.7621C19.1689 15.4259 19.2918 16.1388 19.3656 16.8026C20.1031 17.3435 20.8407 17.786 21.5045 18.3515C23.25 19.7528 25.2414 20.4166 27.4049 20.8592L29.3717 21.2525C29.2733 21.7442 29.2242 22.1376 29.1504 22.5064C29.0275 23.121 28.6833 23.3668 28.0933 23.3668C25.4872 23.2685 22.955 23.5881 20.4719 24.2519C20.2506 24.3256 20.054 24.424 19.8573 24.5223C19.2918 24.7928 18.8001 25.0878 18.1609 25.1861C17.448 25.309 16.8825 25.8745 16.44 26.4645C15.1861 28.0134 14.7682 29.9064 14.2765 31.7749C13.9077 33.1762 13.5144 34.6022 13.121 36.0281C12.9243 36.6673 12.6047 37.1836 11.8917 37.454C11.8917 35.9789 11.8672 34.5284 11.8917 33.0779C11.9163 31.6274 12.0393 30.1769 12.0147 28.7264C12.0147 27.6446 11.8917 26.5875 11.8426 25.5057C11.8426 25.2107 11.7688 24.8911 11.818 24.5961C11.9163 23.9569 11.7934 23.4406 11.1542 23.0964C10.81 22.8997 10.515 22.6047 10.22 22.3097C9.21198 21.3017 7.90898 20.8837 6.65514 20.3675C4.86044 19.6545 3.04115 19.0153 1.24645 18.3515C0.631821 18.1302 0.508896 17.7123 0.951426 17.2206C1.24645 16.8764 1.59063 16.7781 2.00858 16.8026C3.287 16.8518 4.56542 16.8518 5.84384 16.901C7.56479 16.9501 9.21198 16.6797 10.8346 16.0405C11.3509 15.8192 11.9901 15.7701 12.4818 15.5242C14.2519 14.7375 15.432 13.3116 16.3908 11.7135C16.735 11.1235 17.0792 10.4843 17.3742 9.84508C17.8167 9.00919 18.2101 8.12413 18.6526 7.23907C19.2427 6.05899 19.3656 4.75599 19.636 3.50215C19.8819 2.56793 20.0048 1.60911 20.2015 0.674881C20.2261 0.502787 20.3244 0.355276 20.3736 0.207767Z" fill="#2772BC"/>
</svg>
