<svg width="43" height="35" viewBox="0 0 43 35" fill="none" xmlns="http://www.w3.org/2000/svg">
<path d="M0.146327 4.81028C1.2874 4.60495 2.19318 5.03931 3.15272 5.39224C6.18834 6.46118 9.1702 7.61153 12.184 8.64268C13.4634 9.11326 14.7529 9.42684 16.0642 9.77821C16.6385 9.90013 17.1371 10.0657 17.5341 10.4915C18.203 11.2138 19.1073 11.2963 19.9359 11.4225C20.8311 10.7041 21.6072 9.95378 22.5082 9.33277C24.774 7.67194 26.2255 5.47352 27.4647 2.9946L28.5804 0.73814C29.1445 1.01707 29.6054 1.20444 30.0285 1.41364C30.7336 1.76229 30.9198 2.25939 30.7282 2.97466C29.7625 6.10183 29.3274 9.27535 29.3255 12.5011C29.3431 12.7932 29.3984 13.0636 29.4537 13.334C29.5979 14.1073 29.7958 14.7992 29.7074 15.606C29.6248 16.5102 30.1266 17.3793 30.6982 18.1074C32.1685 20.1305 34.3275 21.252 36.4328 22.455C38.0118 23.3572 39.6126 24.2973 41.2134 25.2373C41.9244 25.6833 42.4465 26.2385 42.5427 27.1906C40.7545 26.7114 38.9882 26.2701 37.2378 25.7691C35.4874 25.2682 33.769 24.648 32.0026 24.2067C30.6913 23.8553 29.3698 23.6609 28.0425 23.3692C27.6849 23.2733 27.2735 23.2589 26.9318 23.1035C26.1889 22.7766 25.5231 22.758 24.8982 23.421C24.548 23.7744 24.0945 24.0362 23.6411 24.298C22.0917 25.1925 21.1619 26.6363 20.1287 27.9886C18.6815 29.9326 17.3157 31.9304 15.928 33.8904C15.4602 34.5636 14.9136 34.5768 14.4613 33.8807C14.1399 33.4112 14.1325 32.9621 14.298 32.4634C14.7729 30.9296 15.1881 29.3799 15.663 27.8461C16.2816 25.7758 16.4888 23.6912 16.241 21.5166C16.1404 20.8189 16.2885 20.028 16.1502 19.3521C15.7714 16.9507 14.4262 15.057 12.8004 13.3756C12.1969 12.7668 11.5339 12.1419 10.8548 11.5766C9.98527 10.7687 9.04013 10.0043 8.11097 9.18039C6.87208 8.08181 5.33246 7.50955 3.90035 6.77445C2.84769 6.17296 1.72531 5.71251 0.656683 5.17063C0.456048 5.08493 0.309173 4.9178 0.146327 4.81028Z" fill="#2772BC"/>
</svg>
