<svg width="33" height="24" viewBox="0 0 33 24" fill="none" xmlns="http://www.w3.org/2000/svg">
<path d="M0.301758 22.1963C0.614674 21.327 1.27527 20.8751 1.90111 20.3535C3.84814 18.6846 5.82994 17.0853 7.7422 15.4164C8.57664 14.721 9.30678 13.9561 10.0717 13.1912C10.3846 12.8436 10.6975 12.5654 11.1495 12.4611C11.9144 12.2873 12.3316 11.6962 12.7489 11.1747C12.6098 10.2707 12.4012 9.43624 12.3316 8.56703C12.0883 6.34185 11.1495 4.46436 9.93261 2.62163L8.82002 0.952748C9.23724 0.674602 9.55016 0.431224 9.86308 0.222613C10.3846 -0.125072 10.8018 -0.0555334 11.219 0.361688C12.9922 2.27395 15.0088 3.83853 17.234 5.12496C17.4426 5.22926 17.6512 5.2988 17.8598 5.36834C18.4509 5.57695 19.0072 5.71602 19.5287 6.09848C20.1198 6.5157 20.9194 6.5157 21.6496 6.41139C23.6314 6.20278 25.2655 5.15973 26.9344 4.18621C28.186 3.45608 29.4725 2.72594 30.7589 1.9958C31.35 1.68289 31.941 1.54381 32.6364 1.85673C31.5933 2.89978 30.5851 3.94283 29.542 4.95112C28.499 5.9594 27.3864 6.89815 26.3781 7.9412C25.6132 8.70611 24.9526 9.54055 24.2224 10.3402C24.0138 10.5488 23.84 10.827 23.5966 11.0008C23.0751 11.3833 22.7969 11.8353 23.0055 12.5306C23.1098 12.9131 23.1098 13.3303 23.1098 13.7475C23.1098 15.173 23.7357 16.3899 24.2572 17.6416C25.0221 19.4148 25.8566 21.1532 26.6562 22.8916C26.9344 23.4827 26.7258 23.8651 26.0652 23.8999C25.6132 23.9347 25.3003 23.7608 25.0221 23.4479C24.1529 22.5092 23.2489 21.6052 22.3797 20.6664C21.1976 19.4148 19.8416 18.4413 18.2423 17.7459C17.7207 17.5373 17.234 17.1201 16.7125 16.9462C14.9045 16.2509 13.0618 16.4247 11.2538 16.8767C10.5932 17.0505 9.89784 17.2591 9.23724 17.5025C8.33326 17.7807 7.42929 18.1284 6.49054 18.4413C5.23887 18.8585 4.23059 19.6929 3.15277 20.3883C2.31833 20.8751 1.55342 21.4661 0.753747 21.9876C0.614674 22.092 0.440832 22.1267 0.301758 22.1963Z" fill="white"/>
</svg>
