<svg width="250" height="200" viewBox="0 0 250 200" fill="none" xmlns="http://www.w3.org/2000/svg">
<path d="M49.1437 200C53.9059 200 57.7665 198.565 57.7665 196.794C57.7665 195.023 53.9059 193.588 49.1437 193.588C44.3814 193.588 40.5208 195.023 40.5208 196.794C40.5208 198.565 44.3814 200 49.1437 200Z" fill="#303030"/>
<path d="M69.839 199.573C74.6013 199.573 78.4618 198.137 78.4618 196.367C78.4618 194.596 74.6013 193.161 69.839 193.161C65.0767 193.161 61.2162 194.596 61.2162 196.367C61.2162 198.137 65.0767 199.573 69.839 199.573Z" fill="#303030"/>
<path d="M97.3104 145.684C105.459 141.026 110.869 135.195 109.394 132.658C107.92 130.122 100.119 131.842 91.9702 136.499C83.8218 141.156 78.4116 146.988 79.8863 149.525C81.3609 152.061 89.162 150.341 97.3104 145.684Z" fill="#303030"/>
<path d="M89.6614 157.105C92.6745 138.695 80.0649 121.348 61.4969 118.361C42.9289 115.373 25.4339 127.876 22.4207 146.286C19.4075 164.696 32.0172 182.043 50.5852 185.03C69.1532 188.018 86.6482 175.515 89.6614 157.105Z" fill="#303030"/>
<path d="M50.8682 178.199H40.5208V196.58H50.8682V178.199Z" fill="#303030"/>
<path d="M71.5635 178.199H61.2162V196.58H71.5635V178.199Z" fill="#303030"/>
<path d="M56.9038 154.688C63.3329 154.688 68.5447 149.52 68.5447 143.146C68.5447 136.771 63.3329 131.604 56.9038 131.604C50.4748 131.604 45.263 136.771 45.263 143.146C45.263 149.52 50.4748 154.688 56.9038 154.688Z" fill="white"/>
<path d="M56.9024 146.993C59.0454 146.993 60.7827 145.27 60.7827 143.146C60.7827 141.021 59.0454 139.298 56.9024 139.298C54.7594 139.298 53.0221 141.021 53.0221 143.146C53.0221 145.27 54.7594 146.993 56.9024 146.993Z" fill="#303030"/>
<path d="M23.0022 120.29C20.252 108.078 29.0433 95.7379 42.6381 92.728C56.2329 89.7182 69.4832 97.1781 72.2334 109.39C74.9836 121.602 65.9738 126.106 52.379 129.116C38.7842 132.126 25.7524 132.502 23.0022 120.29Z" fill="#2772BC"/>
<path d="M33.0653 143.262C34.3306 140.617 28.4673 135.233 19.9692 131.237C11.4711 127.24 3.55633 126.145 2.29103 128.79C1.02573 131.435 6.88903 136.819 15.3871 140.815C23.8852 144.812 31.8 145.907 33.0653 143.262Z" fill="#303030"/>
<path d="M39.3112 163.878C39.3112 167.183 47.8946 173.71 57.4191 173.71C66.9436 173.71 75.8739 164.404 75.8739 161.099C75.8739 157.794 66.9435 161.74 57.4191 161.74C47.8946 161.74 39.3112 160.573 39.3112 163.878Z" fill="white"/>
<path d="M174.806 200C179.569 200 183.429 198.565 183.429 196.794C183.429 195.023 179.569 193.588 174.806 193.588C170.044 193.588 166.184 195.023 166.184 196.794C166.184 198.565 170.044 200 174.806 200Z" fill="#303030"/>
<path d="M154.111 199.573C158.873 199.573 162.734 198.137 162.734 196.367C162.734 194.596 158.873 193.161 154.111 193.161C149.349 193.161 145.488 194.596 145.488 196.367C145.488 198.137 149.349 199.573 154.111 199.573Z" fill="#303030"/>
<path d="M144.062 149.525C145.537 146.989 140.127 141.157 131.978 136.5C123.83 131.842 116.029 130.123 114.554 132.659C113.08 135.195 118.49 141.027 126.638 145.685C134.787 150.342 142.588 152.062 144.062 149.525Z" fill="#303030"/>
<path d="M167.909 185.466C186.72 185.466 201.969 170.346 201.969 151.695C201.969 133.044 186.72 117.924 167.909 117.924C149.098 117.924 133.849 133.044 133.849 151.695C133.849 170.346 149.098 185.466 167.909 185.466Z" fill="#303030"/>
<path d="M183.428 178.199H173.081V196.58H183.428V178.199Z" fill="#303030"/>
<path d="M162.734 178.199H152.387V196.58H162.734V178.199Z" fill="#303030"/>
<path d="M159.929 154.688C166.358 154.688 171.569 149.52 171.569 143.146C171.569 136.771 166.358 131.604 159.929 131.604C153.5 131.604 148.288 136.771 148.288 143.146C148.288 149.52 153.5 154.688 159.929 154.688Z" fill="white"/>
<path d="M157.123 144.287C158.643 142.781 158.653 140.347 157.144 138.85C155.636 137.353 153.181 137.361 151.66 138.867C150.14 140.373 150.13 142.807 151.639 144.304C153.147 145.801 155.602 145.793 157.123 144.287Z" fill="#303030"/>
<path d="M171.57 129.116C157.975 126.106 148.966 121.602 151.716 109.39C154.466 97.1781 167.716 89.7182 181.311 92.728C194.906 95.7379 203.697 108.078 200.947 120.29C198.197 132.501 185.165 132.126 171.57 129.116Z" fill="#2772BC"/>
<path d="M203.525 177.437C206.379 176.685 206.735 168.77 204.32 159.757C201.906 150.744 197.635 144.046 194.782 144.798C191.928 145.549 191.572 153.465 193.986 162.478C196.401 171.491 200.671 178.188 203.525 177.437Z" fill="#303030"/>
<path d="M160.192 161.741C153.938 161.741 148.076 157.795 148.076 161.1C148.076 164.405 153.938 173.711 160.192 173.711C166.445 173.711 172.08 167.184 172.08 163.879C172.08 160.573 166.445 161.741 160.192 161.741Z" fill="white"/>
<path d="M116.174 95.702H113.149C110.44 95.699 107.842 94.6304 105.926 92.7307C104.01 90.831 102.932 88.2553 102.929 85.5687V83.0509C102.929 76.8146 104.121 71.5929 106.471 67.5309C109.32 62.806 112.643 58.3788 116.39 54.317C118.878 51.8366 121.135 49.1391 123.135 46.257C124.569 44.018 125.31 41.4109 125.265 38.7587C125.265 32.5029 121.154 29.4616 112.697 29.4616C108.006 29.5142 103.345 30.2079 98.8454 31.5231C97.11 32.0142 95.2834 32.0993 93.5092 31.7717C91.7351 31.444 90.0618 30.7126 88.6212 29.6349C87.1805 28.5572 86.0118 27.1628 85.207 25.5612C84.4022 23.9597 83.9833 22.1947 83.9832 20.4054V15.3085C83.9733 13.1144 84.6055 10.9645 85.8032 9.11948C87.0009 7.27446 88.7126 5.81351 90.731 4.91375C98.6781 1.55104 107.249 -0.120647 115.888 0.00677315C124.939 0.00677315 133.109 1.51417 140.173 4.48646C147.249 7.46564 152.84 11.6666 156.79 16.9729C160.728 22.2416 162.821 28.6422 162.75 35.1995C162.75 42.241 160.811 48.374 156.987 53.428C153.205 58.4306 147.784 63.9073 140.873 69.7068C137.232 72.7092 133.781 75.9321 130.541 79.3569C128.449 81.5917 126.97 84.3217 126.246 87.2856C125.843 89.6432 124.61 91.7827 122.765 93.3237C120.921 94.8647 118.586 95.7074 116.174 95.702Z" fill="#123456"/>
<path d="M114.491 143.355H114.093C109.071 143.352 104.256 141.372 100.706 137.85C97.1568 134.328 95.1628 129.553 95.1628 124.574C95.1628 119.595 97.1568 114.82 100.706 111.298C104.256 107.776 109.071 105.796 114.093 105.793H114.491C116.98 105.791 119.444 106.276 121.744 107.219C124.044 108.162 126.133 109.545 127.893 111.29C129.654 113.034 131.05 115.105 132.003 117.384C132.955 119.663 133.446 122.107 133.446 124.574C133.446 127.041 132.955 129.485 132.003 131.764C131.05 134.043 129.654 136.114 127.893 137.858C126.133 139.603 124.044 140.986 121.744 141.929C119.444 142.872 116.98 143.357 114.491 143.355Z" fill="#123456"/>
<path d="M244.885 85.5847C247.71 85.5847 250 83.3144 250 80.5138C250 77.7132 247.71 75.4429 244.885 75.4429C242.061 75.4429 239.771 77.7132 239.771 80.5138C239.771 83.3144 242.061 85.5847 244.885 85.5847Z" fill="#2772BC"/>
<path d="M39.2628 67.5496C42.0874 67.5496 44.3772 65.2792 44.3772 62.4786C44.3772 59.678 42.0874 57.4077 39.2628 57.4077C36.4382 57.4077 34.1484 59.678 34.1484 62.4786C34.1484 65.2792 36.4382 67.5496 39.2628 67.5496Z" fill="#2772BC"/>
</svg>
