<svg width="30" height="39" viewBox="0 0 30 39" fill="none" xmlns="http://www.w3.org/2000/svg">
<path d="M18.789 7.5559C19.1968 6.70691 19.3999 5.78425 19.5619 4.90553C19.5323 5.25384 19.5022 5.60249 19.4721 5.95124C19.3428 7.45057 19.2133 8.95173 19.1163 10.4355C19.0326 11.3976 19.0362 12.3441 19.0397 13.2745C19.0404 13.4598 19.0411 13.6444 19.0411 13.8285L19.0411 13.8419L19.0417 13.8553C19.0649 14.3144 19.033 14.6167 18.8699 14.8886C18.3873 15.6874 18.4863 16.548 18.5583 17.1738C18.5649 17.2312 18.5713 17.2866 18.5769 17.3398L18.6007 17.5623L18.7741 17.6947C19.07 17.9206 19.3489 18.1192 19.6162 18.3095C20.0632 18.6278 20.4778 18.9229 20.885 19.2841L20.8905 19.2889L20.896 19.2935C22.7286 20.8251 24.8071 21.538 27.0049 22.006L27.007 22.0064L28.5012 22.3175C28.4891 22.3921 28.4776 22.4642 28.4666 22.5338L28.4597 22.5777C28.4283 22.7769 28.4007 22.9521 28.3683 23.1211C28.3212 23.3661 28.2467 23.4634 28.1917 23.5087C28.1345 23.5557 28.026 23.6056 27.8 23.6069C25.1446 23.5037 22.5667 23.8434 20.0436 24.5455L20.0293 24.5495L20.0152 24.5544C19.7607 24.6427 19.5377 24.7588 19.3472 24.858L19.3402 24.8616C19.2208 24.9211 19.1097 24.9786 19.004 25.0332C18.5666 25.2592 18.2237 25.4364 17.7846 25.5067L17.7846 25.5066L17.7759 25.5082C16.8684 25.6711 16.2057 26.3994 15.7518 27.028C14.5319 28.6007 14.0613 30.4913 13.6204 32.2627C13.5805 32.4228 13.5409 32.582 13.501 32.7399C13.1337 34.1928 12.7418 35.6718 12.349 37.1542C12.2765 37.3978 12.1911 37.6049 12.0771 37.7784C12.0762 37.5975 12.0753 37.4171 12.0743 37.2372C12.0688 36.2285 12.0635 35.234 12.0797 34.2347C12.0891 33.6624 12.114 33.0689 12.1392 32.4673C12.1779 31.5451 12.2174 30.6041 12.2027 29.6918C12.2025 28.9785 12.1526 28.2499 12.104 27.541C12.0757 27.1288 12.0479 26.7231 12.0306 26.331C12.0299 26.1947 12.0171 26.0477 12.0067 25.9285C12.0036 25.8926 12.0006 25.8591 11.9984 25.8293C11.9866 25.6767 11.9852 25.5689 11.9994 25.4803L11.9994 25.4803L12.0004 25.474C12.0562 25.0959 12.0593 24.6943 11.9172 24.3154C11.7707 23.9244 11.492 23.6162 11.0907 23.3897C10.8156 23.2249 10.5677 22.9714 10.2646 22.6558C9.32309 21.6757 8.1368 21.1855 7.05961 20.7404C6.88291 20.6673 6.70914 20.5955 6.53987 20.523L6.53988 20.5229L6.53421 20.5206C5.25044 19.9897 3.95072 19.4966 2.66403 19.0084C2.14479 18.8114 1.62768 18.6152 1.11459 18.4176L1.11459 18.4176L1.11058 18.4161C0.950648 18.3561 0.8945 18.3015 0.877357 18.2802C0.883048 18.253 0.907974 18.1821 1.01375 18.0597L1.01385 18.0598L1.02157 18.0505C1.11996 17.931 1.21202 17.8699 1.30146 17.8356C1.39526 17.7996 1.5141 17.7825 1.67803 17.7926L1.67802 17.7927L1.68796 17.7931C2.3319 17.8189 2.97506 17.8317 3.61276 17.8445L3.615 17.8446C4.255 17.8574 4.8895 17.8701 5.52323 17.8955L5.52322 17.8955L5.52806 17.8956C7.31205 17.9487 9.02536 17.6564 10.7123 16.9646L10.7191 16.9618L10.7258 16.9588C10.9274 16.8689 11.1566 16.81 11.4347 16.7385C11.4507 16.7344 11.4669 16.7302 11.4832 16.726C11.7604 16.6547 12.09 16.5677 12.3887 16.4142C14.2869 15.5325 15.5298 13.9472 16.5091 12.2481L16.5091 12.2482L16.5121 12.2427C16.8597 11.6225 17.2096 10.9468 17.5116 10.267C17.7756 9.74707 18.0302 9.19238 18.2832 8.64134C18.4518 8.27412 18.6196 7.90853 18.789 7.5559ZM0.875787 18.2933C0.875749 18.2933 0.875702 18.2926 0.875759 18.2914C0.875854 18.2926 0.875825 18.2933 0.875787 18.2933Z" fill="white" stroke="white"/>
</svg>
