<svg width="40" height="40" viewBox="0 0 40 40" fill="none" xmlns="http://www.w3.org/2000/svg">
<g clip-path="url(#clip0_1059_10880)">
<path opacity="0.2" fill-rule="evenodd" clip-rule="evenodd" d="M20 40C31.0457 40 40 31.0457 40 20C40 8.9543 31.0457 0 20 0C8.9543 0 0 8.9543 0 20C0 31.0457 8.9543 40 20 40Z" fill="white"/>
<path d="M20 19C22.396 19 24.575 19.694 26.178 20.671C26.978 21.161 27.662 21.736 28.156 22.361C28.642 22.977 29 23.713 29 24.5C29 25.345 28.589 26.011 27.997 26.486C27.437 26.936 26.698 27.234 25.913 27.442C24.335 27.859 22.229 28 20 28C17.771 28 15.665 27.86 14.087 27.442C13.302 27.234 12.563 26.936 12.003 26.486C11.41 26.01 11 25.345 11 24.5C11 23.713 11.358 22.977 11.844 22.361C12.338 21.736 13.021 21.161 13.822 20.671C15.425 19.694 17.605 19 20 19Z" fill="#DFDFE8"/>
<path d="M19.9997 8C23.8487 8 26.2547 12.167 24.3297 15.5C23.8909 16.2601 23.2597 16.8913 22.4997 17.3301C21.7396 17.7689 20.8774 18 19.9997 18C16.1507 18 13.7447 13.833 15.6697 10.5C16.1086 9.73992 16.7397 9.10875 17.4998 8.6699C18.2599 8.23106 19.1221 8.00002 19.9997 8Z" fill="#DFDFE8"/>
</g>
<defs>
<clipPath id="clip0_1059_10880">
<rect width="40" height="40" fill="white"/>
</clipPath>
</defs>
</svg>
